# xmcd
# Track frame offsets:
# 150
# 19080
# 33047
# 52270
#
# Disc length: 788 seconds
# Revision: 0
# Processed by: cddbd v1.5.1PL2 Copyright (c) Steve Scherf et al.
# Submitted via: VisiTrax 2.9.10.228 - For more info visit www.synapsa.com
#
DISCID=2a031204
DTITLE=Forster.Lee - Kimberley Gold
DYEAR=1900
DGENRE=Country
TTITLE0=Kimberley Gold.
TTITLE1=Let's Get lost.
TTITLE2=She Gives To Me.
TTITLE3=Kimberley Gold..Reprise.
EXTD=
EXTT0=
EXTT1=
EXTT2=
EXTT3=
PLAYORDER=
